<svg version="1.1" id="Layer_1" xmlns="http://www.w3.org/2000/svg" xmlns:xlink="http://www.w3.org/1999/xlink" x="0px" y="0px"
	 width="423.504px" height="24.681px" viewBox="0 0 423.504 24.681" enable-background="new 0 0 423.504 24.681"
	 xml:space="preserve">
	<g>
		<path fill="#DE037F" d="M364.737,17.111c-4.899,0.085-10.713-0.089-17.115-0.492c-1.6-0.11-3.239-0.208-4.906-0.361
			c-0.833-0.071-1.676-0.143-2.526-0.216c-0.425-0.037-0.828-0.066-1.368-0.136c-0.524-0.061-0.904-0.129-1.366-0.194
			c-3.386-0.534-6.89-1.087-10.476-1.653c-14.256-2.154-29.826-3.824-44.252-4.005c-14.413-0.237-27.667,1.218-36.915,3.938
			c-4.623,1.337-8.25,2.868-10.66,4.126c-1.228,0.588-2.098,1.198-2.732,1.541c-0.621,0.365-0.948,0.557-0.948,0.557
			s0.312-0.215,0.904-0.624c0.606-0.386,1.439-1.062,2.627-1.739c2.33-1.435,5.876-3.236,10.468-4.911
			c9.177-3.398,22.557-5.772,37.194-6.418c14.646-0.707,30.531,0.103,45.066,1.625c3.627,0.375,7.202,0.813,10.574,1.209
			c0.392,0.04,0.858,0.101,1.183,0.123c0.307,0.032,0.751,0.05,1.169,0.07c0.836,0.041,1.665,0.082,2.484,0.122
			c1.64,0.092,3.246,0.135,4.814,0.195c6.273,0.203,11.936,0.264,16.687,0.181c19.012-0.187,33.875-2.124,43.82-4.734
			c1.261-0.278,2.391-0.692,3.492-0.992c1.086-0.334,2.137-0.579,3.046-0.95c0.917-0.331,1.776-0.64,2.573-0.927
			c0.792-0.275,1.512-0.524,2.117-0.818C422.166,0.542,423.504,0,423.504,0s-1.08,0.902-3.271,2.594
			c-0.537,0.445-1.186,0.86-1.91,1.313c-0.738,0.464-1.536,0.965-2.386,1.499c-0.857,0.574-1.853,1.028-2.898,1.581
			c-1.059,0.517-2.165,1.158-3.4,1.661c-4.882,2.218-11.189,4.283-18.746,5.833C383.337,16.008,374.532,17.021,364.737,17.111z"/>
	</g>

	<g>
		<path fill="#DE037F" d="M58.859,10.052c4.75,0.083,10.414,0.022,16.686-0.181c1.568-0.06,3.175-0.103,4.815-0.195
			c0.819-0.041,1.648-0.081,2.484-0.122c0.418-0.02,0.862-0.039,1.169-0.07c0.325-0.022,0.791-0.083,1.183-0.123
			c3.372-0.396,6.946-0.835,10.573-1.21c14.535-1.522,30.421-2.332,45.066-1.625c14.637,0.646,28.017,3.021,37.194,6.418
			c4.592,1.675,8.138,3.477,10.468,4.911c1.188,0.677,2.021,1.353,2.627,1.739c0.592,0.408,0.904,0.624,0.904,0.624
			s-0.327-0.192-0.948-0.557c-0.634-0.343-1.504-0.952-2.732-1.541c-2.41-1.258-6.037-2.79-10.659-4.126
			c-9.248-2.721-22.502-4.176-36.916-3.938c-14.426,0.181-29.996,1.851-44.252,4.005c-3.585,0.566-7.089,1.119-10.475,1.653
			c-0.462,0.065-0.842,0.133-1.366,0.194c-0.54,0.07-0.943,0.099-1.368,0.136c-0.851,0.073-1.692,0.145-2.526,0.216
			c-1.667,0.152-3.306,0.251-4.906,0.361c-6.402,0.402-12.216,0.577-17.115,0.492c-9.795-0.09-18.6-1.104-26.155-2.631
			c-7.556-1.55-13.864-3.615-18.746-5.833c-1.236-0.503-2.342-1.145-3.4-1.661C9.42,6.434,8.424,5.98,7.568,5.406
			C6.717,4.872,5.92,4.371,5.181,3.907c-0.724-0.453-1.373-0.868-1.91-1.313C1.08,0.901,0,0,0,0s1.338,0.542,3.81,1.631
			C4.416,1.925,5.136,2.175,5.928,2.45c0.796,0.287,1.656,0.596,2.573,0.927c0.909,0.371,1.96,0.616,3.046,0.95
			c1.101,0.3,2.231,0.714,3.492,0.992C24.984,7.928,39.848,9.865,58.859,10.052z"/>
	</g>		
	<g id="Layer_2">
		<circle fill="none" stroke="#DE037F" stroke-width="2" stroke-miterlimit="10" cx="211.614" cy="14.208" r="9.07"/>
		<circle fill="#DE037F" cx="211.614" cy="14.208" r="6.127"/>
	</g>
</svg>