<svg version="1.1" id="Layer_1" xmlns="http://www.w3.org/2000/svg" xmlns:xlink="http://www.w3.org/1999/xlink" x="0px" y="0px"
	 width="810.9px" height="91.1px" viewBox="0 0 810.9 91.1" style="fill:#f2f2f2; enable-background:new 0 0 810.9 91.1;" xml:space="preserve" >
<g>
	<path d="M16.3,42.4c3.5,1.3,7.6,3.1,12.2,5c4.6,2,9.7,4.2,15.3,6.6c2.8,1.2,5.8,2.4,8.9,3.7c1.6,0.6,3.2,1.2,4.8,1.8
		c1.6,0.6,3.3,1.3,5,1.8c1.7,0.6,3.5,1.2,5.3,1.8c1.8,0.6,3.6,1,5.5,1.6c3.7,1.1,7.7,1.8,11.7,2.7c2,0.4,4.1,0.7,6.2,1
		c2.1,0.3,4.2,0.7,6.4,0.8c2.2,0.2,4.3,0.4,6.6,0.5c1.1,0.1,2.2,0.2,3.4,0.3c1.1,0,2.3,0.1,3.4,0.1c2.3,0,4.7,0.1,7.1,0.1
		c0.6,0,1.2,0,1.9,0c0.6,0,1.3,0,1.9-0.1c1.3,0,2.6-0.1,3.9-0.1c2.7-0.1,5.4-0.2,8.2-0.3c2.8-0.2,5.7-0.5,8.7-0.7
		c5.9-0.4,12.1-1.2,18.5-2c6.4-0.7,13-1.8,19.7-2.7c26.7-3.9,55.7-7.9,82.5-7.1c6.7,0.2,13.2,0.7,19.5,1.5
		c6.3,0.8,12.4,1.9,18.1,3.3c11.5,2.9,21.7,6.7,29.9,11.2c4.1,2.2,7.7,4.4,10.9,6.5c1.6,1.1,3,2.1,4.3,3.1c1.3,1,2.5,2,3.5,2.8
		c0.5,0.4,1,0.8,1.5,1.2c0.5,0.4,0.9,0.8,1.3,1.1c0.8,0.7,1.5,1.3,2,1.8c1.1,1,1.7,1.5,1.7,1.5s-0.5-0.5-1.6-1.6
		c-0.5-0.5-1.2-1.2-1.9-1.9c-0.4-0.4-0.8-0.8-1.2-1.2c-0.5-0.4-0.9-0.8-1.5-1.3c-1-0.9-2.2-1.9-3.4-3c-1.3-1-2.7-2.1-4.2-3.3
		c-3.1-2.3-6.6-4.8-10.7-7.3c-8.1-5-18.3-9.5-29.8-13.1c-5.8-1.7-11.9-3.2-18.3-4.4c-6.4-1.1-13-2-19.8-2.6
		c-27.2-2.3-56.6,0.2-83.5,3.1c-6.7,0.7-13.3,1.5-19.6,1.9c-6.3,0.5-12.4,1.2-18.3,1.4c-2.9,0.2-5.8,0.3-8.5,0.5
		c-2.8,0-5.4,0.1-8,0.1c-1.3,0-2.6,0-3.8,0.1c-0.6,0-1.2,0-1.9,0c-0.6,0-1.2,0-1.8,0c-2.4-0.1-4.7-0.1-6.9-0.2c-1.1,0-2.2,0-3.3-0.1
		c-1.1-0.1-2.2-0.2-3.2-0.2c-2.1-0.1-4.2-0.3-6.3-0.4c-2.1-0.1-4.1-0.5-6.1-0.7c-2-0.3-4-0.4-5.9-0.7c-3.9-0.7-7.6-1.2-11.3-2
		c-1.8-0.4-3.6-0.7-5.3-1.2c-1.7-0.4-3.5-0.9-5.1-1.3c-1.7-0.4-3.3-0.9-5-1.4c-1.6-0.5-3.2-0.9-4.8-1.4c-3.1-0.9-6.1-1.8-9-2.7
		c-5.8-1.8-11.1-3.3-15.9-4.6c-4.8-1.2-9-2.3-12.7-3c-3.7-0.7-6.8-1.3-9.3-1.7c-5-0.7-7.7-1-7.7-1s2.5,1,7.3,2.8
		C9.8,39.7,12.7,41,16.3,42.4z"/>
	<path d="M359.1,51.4c2.6,3.9,5.6,6.8,8.4,9.2c1.4,1.2,2.8,2.2,4.1,3.2c1.3,0.9,2.5,1.8,3.6,2.5c4.5,2.9,8.5,5.2,11.9,7.2
		c3.5,2,6.3,3.9,8.6,5.6c1.1,0.9,2.1,1.6,2.9,2.4c0.8,0.7,1.5,1.3,2,1.9c1,1.1,1.6,1.7,1.6,1.7s-0.3-0.8-1-2.4
		c-0.3-0.8-0.9-1.7-1.5-2.7c-0.6-1.1-1.5-2.2-2.5-3.4c-2-2.4-4.7-5.1-8-7.7c-3.3-2.7-7.3-5.3-11.6-8.2c-1.1-0.7-2.2-1.5-3.5-2.3
		c-1.2-0.9-2.6-1.8-3.9-2.8c-2.7-2.1-5.5-4.5-7.8-7.6c-2.3-3.1-4.1-7-4.9-11.3c-0.8-4.3-0.5-8.9,1.1-12.6c1.6-3.7,4.6-6.1,7.6-7.2
		c3-1.1,6-1.2,8.5-1c0.6,0,1.2,0.1,1.8,0.2c0.6,0.1,1.1,0.2,1.6,0.3c1,0.2,1.8,0.4,2.5,0.6c1.4,0.4,2.1,0.6,2.1,0.6
		s-0.7-0.3-2.1-0.9c-0.7-0.3-1.5-0.6-2.5-0.9c-0.5-0.2-1-0.3-1.6-0.5c-0.6-0.2-1.1-0.3-1.8-0.4c-2.5-0.5-5.6-0.8-8.9,0
		c-1.7,0.4-3.4,1.2-5.1,2.4c-1.6,1.2-3.1,3-4.3,5.1c-2.3,4.2-3,9.8-2.4,15C354.6,42.6,356.5,47.5,359.1,51.4z"/>
	<path d="M323,53.2c-2.5-1.3-4.6-2.2-6.1-2.9c-0.8-0.3-1.4-0.6-1.9-0.8c-0.5-0.2-0.7-0.3-0.7-0.3s0,0.3,0.1,0.9
		c0.1,0.6,0.3,1.5,0.8,2.5c0.9,2,2.8,4.7,5.9,6.3c1.5,0.8,3.7,1.5,6.2,1.8c2.4,0.3,5,0.3,7.4,0.1c2.4-0.2,4.5-0.7,6-1.1
		c1.5-0.4,2.5-0.7,2.5-0.7s-1-0.1-2.5-0.3c-1.5-0.2-3.6-0.5-5.8-1.1c-2.2-0.5-4.5-1.3-6.6-2.1C326,54.8,324.2,53.9,323,53.2z"/>
	<path d="M319,40.7c-1.5-0.3-2.9-0.9-4.3-1.3c-0.3-0.1-0.7-0.2-1-0.3c-0.3-0.1-0.7-0.3-1-0.4c-0.7-0.3-1.3-0.5-1.9-0.7
		c-0.6-0.2-1.2-0.4-1.7-0.6c-0.5-0.2-1-0.5-1.4-0.6c-0.9-0.4-1.7-0.7-2.6-0.9c-0.8-0.3-1.6-0.6-2.3-0.9c-0.7-0.2-1.4-0.4-2.1-0.6
		c-0.6-0.2-1.2-0.4-1.7-0.5c-2.1-0.6-3.5-0.6-3.5-0.6s0.7,1.3,2.3,3.3c0.4,0.5,0.9,1,1.4,1.6c0.6,0.5,1.2,1,1.9,1.6s1.4,1.1,2.3,1.6
		c0.8,0.5,1.8,0.9,2.7,1.3c0.5,0.2,1,0.4,1.6,0.6c0.6,0.2,1.2,0.3,1.9,0.5c0.6,0.1,1.3,0.3,2.1,0.5c0.4,0.1,0.7,0.2,1.1,0.2
		c0.4,0.1,0.8,0.1,1.1,0.1c1.5,0.1,3.1,0.4,4.7,0.3c1.6,0,3.2,0,4.7-0.1c3-0.3,5.8-0.6,7.8-1.1c1.9-0.4,3.2-0.6,3.2-0.6
		s-1.3-0.1-3.2-0.3c-2-0.1-4.7-0.6-7.6-1C322,41.4,320.5,41.1,319,40.7z"/>
	<path d="M279.4,4.9c1.9,3,5.2,7,10.3,10c2.5,1.6,6.1,3.2,10.2,4.6c4,1.4,8.4,2.5,12.4,3.4c4,0.9,7.8,1.6,10.5,2.1
		c2.7,0.5,4.4,0.8,4.4,0.8s-1.6-0.7-4.2-1.8c-2.6-1.1-6.2-2.6-10-4.1c-3.9-1.6-8-3.4-11.7-5.3c-3.7-1.9-7-3.8-9.3-5.2
		c-4.7-2.8-8.3-5.2-10.9-6.9c-1.3-0.8-2.3-1.5-3-1.9c-0.7-0.4-1.1-0.6-1.1-0.6s0.2,0.5,0.6,1.3C277.9,2.2,278.4,3.5,279.4,4.9z"/>
	<path d="M455,91.1c0,0,0.6-0.5,1.7-1.5c0.5-0.5,1.2-1.1,2-1.8c0.4-0.4,0.8-0.7,1.3-1.1c0.5-0.4,1-0.8,1.5-1.2
		c1.1-0.8,2.2-1.8,3.5-2.8c1.3-0.9,2.8-2,4.3-3.1c3.1-2.1,6.8-4.4,10.9-6.5c8.2-4.4,18.4-8.3,29.9-11.2c5.8-1.3,11.8-2.5,18.1-3.3
		c6.3-0.8,12.9-1.2,19.5-1.5c26.8-0.8,55.7,3.2,82.5,7.1c6.7,0.9,13.2,2,19.7,2.7c6.4,0.8,12.6,1.6,18.5,2c3,0.2,5.9,0.5,8.7,0.7
		c2.8,0.1,5.6,0.2,8.2,0.3c1.3,0,2.6,0.1,3.9,0.1c0.6,0,1.3,0,1.9,0.1c0.6,0,1.3,0,1.9,0c2.5,0,4.9-0.1,7.1-0.1
		c1.1,0,2.3-0.1,3.4-0.1c1.1-0.1,2.2-0.2,3.4-0.3c2.2-0.2,4.4-0.4,6.6-0.5c2.2-0.2,4.3-0.6,6.4-0.8c2.1-0.3,4.2-0.5,6.2-1
		c4-0.9,8-1.6,11.7-2.7c1.9-0.5,3.7-1,5.5-1.6c1.8-0.6,3.5-1.2,5.3-1.8c1.7-0.6,3.4-1.2,5-1.8c1.6-0.6,3.2-1.2,4.8-1.8
		c3.1-1.3,6-2.5,8.9-3.7c5.6-2.4,10.7-4.6,15.3-6.6c4.6-1.9,8.6-3.7,12.2-5c3.5-1.4,6.5-2.6,8.9-3.5c4.8-1.8,7.3-2.8,7.3-2.8
		s-2.6,0.3-7.7,1c-2.5,0.3-5.6,0.9-9.3,1.7c-3.7,0.7-7.9,1.8-12.7,3c-4.8,1.3-10.1,2.8-15.9,4.6c-2.9,0.9-5.9,1.8-9,2.7
		c-1.6,0.4-3.2,0.9-4.8,1.4c-1.6,0.5-3.3,1-5,1.4c-1.7,0.4-3.4,0.9-5.1,1.3c-1.7,0.4-3.5,0.8-5.3,1.2c-3.6,0.9-7.4,1.4-11.3,2
		c-1.9,0.4-3.9,0.5-5.9,0.7c-2,0.2-4,0.5-6.1,0.7c-2.1,0.1-4.2,0.3-6.3,0.4c-1.1,0.1-2.1,0.1-3.2,0.2c-1.1,0-2.2,0-3.3,0.1
		c-2.2,0.1-4.5,0.1-6.9,0.2c-0.6,0-1.2,0-1.8,0c-0.6,0-1.2,0-1.9,0c-1.3,0-2.5,0-3.8-0.1c-2.6,0-5.3-0.1-8-0.1
		c-2.8-0.2-5.6-0.3-8.5-0.5c-5.8-0.2-11.9-0.8-18.3-1.4c-6.3-0.5-12.9-1.3-19.6-1.9c-26.9-2.8-56.3-5.4-83.5-3.1
		c-6.8,0.6-13.4,1.4-19.8,2.6c-6.4,1.2-12.5,2.7-18.3,4.4c-11.6,3.6-21.7,8.1-29.8,13.1c-4.1,2.5-7.6,4.9-10.7,7.3
		c-1.5,1.2-2.9,2.3-4.2,3.3c-1.3,1.1-2.4,2.1-3.4,3c-0.5,0.5-1,0.9-1.5,1.3c-0.4,0.4-0.8,0.8-1.2,1.2c-0.8,0.8-1.4,1.4-1.9,1.9
		C455.6,90.6,455,91.1,455,91.1z"/>
	<path d="M412.3,81.5c0.8-0.8,1.8-1.5,2.9-2.4c2.3-1.7,5.1-3.6,8.6-5.6c3.4-2.1,7.5-4.3,11.9-7.2c1.1-0.7,2.3-1.6,3.6-2.5
		c1.3-1,2.7-2,4.1-3.2c2.8-2.4,5.8-5.2,8.4-9.2c2.6-3.9,4.5-8.8,5.1-14c0.6-5.1-0.1-10.7-2.4-15c-1.1-2.1-2.7-3.8-4.3-5.1
		c-1.6-1.2-3.4-2-5.1-2.4c-3.4-0.9-6.5-0.5-8.9,0c-0.6,0.1-1.2,0.2-1.8,0.4c-0.6,0.2-1.1,0.3-1.6,0.5c-1,0.4-1.8,0.6-2.5,0.9
		c-1.3,0.6-2.1,0.9-2.1,0.9s0.8-0.2,2.1-0.6c0.7-0.2,1.5-0.4,2.5-0.6c0.5-0.1,1-0.2,1.6-0.3c0.6-0.1,1.1-0.2,1.8-0.2
		c2.5-0.2,5.4-0.2,8.5,1c3,1.1,6,3.5,7.6,7.2c1.7,3.7,1.9,8.3,1.1,12.6c-0.8,4.3-2.6,8.3-4.9,11.3c-2.3,3.1-5.2,5.6-7.8,7.6
		c-1.3,1.1-2.7,1.9-3.9,2.8c-1.3,0.8-2.4,1.6-3.5,2.3c-4.3,2.9-8.3,5.5-11.6,8.2c-3.4,2.6-6,5.3-8,7.7c-1,1.3-1.8,2.3-2.5,3.4
		c-0.6,1.1-1.2,1.9-1.5,2.7c-0.7,1.6-1,2.4-1,2.4s0.6-0.6,1.6-1.7C410.7,82.8,411.5,82.2,412.3,81.5z"/>
	<path d="M476.4,60.8c2.4,0.2,4.9,0.2,7.4-0.1c2.4-0.3,4.6-1,6.2-1.8c3.1-1.6,5-4.3,5.9-6.3c0.5-1,0.7-1.9,0.8-2.5
		c0.1-0.6,0.1-0.9,0.1-0.9s-0.3,0.1-0.7,0.3c-0.5,0.2-1.1,0.5-1.9,0.8c-1.6,0.7-3.6,1.6-6.1,2.9c-1.3,0.7-3,1.6-5.1,2.4
		c-2.1,0.8-4.4,1.6-6.6,2.1c-2.2,0.5-4.3,0.9-5.8,1.1c-1.5,0.2-2.5,0.3-2.5,0.3s0.9,0.3,2.5,0.7C471.9,60.2,474,60.6,476.4,60.8z"/>
	<path d="M487.5,44.8c1.5,0.1,3.1,0.1,4.7,0.1c1.6,0,3.2-0.2,4.7-0.3c0.4,0,0.8-0.1,1.1-0.1c0.4-0.1,0.7-0.2,1.1-0.2
		c0.7-0.2,1.4-0.3,2.1-0.5c0.7-0.2,1.3-0.3,1.9-0.5c0.6-0.2,1.1-0.4,1.6-0.6c1-0.4,1.9-0.8,2.7-1.3c0.8-0.5,1.6-1.1,2.3-1.6
		s1.3-1.1,1.9-1.6c0.5-0.5,1-1.1,1.4-1.6c1.6-2,2.3-3.3,2.3-3.3s-1.3,0-3.5,0.6c-0.5,0.1-1.1,0.3-1.7,0.5c-0.6,0.2-1.3,0.3-2.1,0.6
		c-0.7,0.2-1.5,0.5-2.3,0.9c-0.8,0.3-1.7,0.6-2.6,0.9c-0.4,0.2-0.9,0.4-1.4,0.6c-0.5,0.2-1.1,0.4-1.7,0.6c-0.6,0.2-1.2,0.5-1.9,0.7
		c-0.3,0.1-0.6,0.3-1,0.4c-0.3,0.1-0.7,0.2-1,0.3c-1.4,0.4-2.8,0.9-4.3,1.3c-1.5,0.3-3,0.7-4.4,1c-2.9,0.4-5.6,0.9-7.6,1
		c-2,0.2-3.2,0.3-3.2,0.3s1.3,0.3,3.2,0.6C481.7,44.2,484.5,44.5,487.5,44.8z"/>
	<path d="M498.6,23c4-0.9,8.4-2,12.4-3.4c4-1.4,7.6-3.1,10.2-4.6c5.1-3.1,8.4-7.1,10.3-10c1-1.4,1.5-2.8,2-3.6
		C533.8,0.5,534,0,534,0s-0.4,0.2-1.1,0.6c-0.7,0.4-1.7,1.1-3,1.9c-2.6,1.7-6.2,4-10.9,6.9c-2.3,1.5-5.6,3.4-9.3,5.2
		c-3.7,1.9-7.8,3.7-11.7,5.3c-3.8,1.6-7.4,3-10,4.1c-2.6,1.1-4.2,1.8-4.2,1.8s1.7-0.3,4.4-0.8C490.8,24.5,494.5,23.8,498.6,23z"/>
</g>
</svg>
