<svg id="Layer_1" version="1.1" xmlns="http://www.w3.org/2000/svg"
		xmlns:xlink="http://www.w3.org/1999/xlink" x="0px" y="0px"
		width="900px"
		height="400px"
		viewBox="0 0 257.1 86.4" 
		style="enable-background:new 0 0 257.1 86.4;" xml:space="preserve">
	<g fill="url(#pattern)">
		<path d="M82.2,51.4c2.6,3.9,5.6,6.8,8.4,9.2c1.4,1.2,2.8,2.2,4.1,3.2c1.3,0.9,2.5,1.8,3.6,2.5
		c4.5,2.9,8.5,5.2,11.9,7.2c3.5,2,6.3,3.9,8.6,5.6c1.1,0.9,2.1,1.6,2.9,2.4c0.8,0.7,1.5,1.3,2,1.9c1,1.1,1.6,1.7,1.6,1.7
		s-0.3-0.8-1-2.4c-0.3-0.8-0.9-1.7-1.5-2.7c-0.6-1.1-1.5-2.2-2.5-3.4c-2-2.4-4.7-5.1-8-7.7c-3.3-2.7-7.3-5.3-11.6-8.2
		c-1.1-0.7-2.2-1.5-3.5-2.3c-1.2-0.9-2.6-1.8-3.9-2.8c-2.7-2.1-5.5-4.5-7.8-7.6c-2.3-3.1-4.1-7-4.9-11.3c-0.8-4.3-0.5-8.9,1.1-12.6
		c1.6-3.7,4.6-6.1,7.6-7.2c3-1.1,6-1.2,8.5-1c0.6,0,1.2,0.1,1.8,0.2c0.6,0.1,1.1,0.2,1.6,0.3c1,0.2,1.8,0.4,2.5,0.6
		c1.4,0.4,2.1,0.6,2.1,0.6s-0.7-0.3-2.1-0.9c-0.7-0.3-1.5-0.6-2.5-0.9c-0.5-0.2-1-0.3-1.6-0.5c-0.6-0.2-1.1-0.3-1.8-0.4
		c-2.5-0.5-5.6-0.8-8.9,0c-1.7,0.4-3.4,1.2-5.1,2.4c-1.6,1.2-3.1,3-4.3,5.1c-2.3,4.2-3,9.8-2.4,15C77.8,42.6,79.6,47.5,82.2,51.4z"
		/>
		<path d="M46.1,53.2c-2.5-1.3-4.6-2.2-6.1-2.9c-0.8-0.3-1.4-0.6-1.9-0.8c-0.5-0.2-0.7-0.3-0.7-0.3
		s0,0.3,0.1,0.9c0.1,0.6,0.3,1.5,0.8,2.5c0.9,2,2.8,4.7,5.9,6.3c1.5,0.8,3.7,1.5,6.2,1.8c2.4,0.3,5,0.3,7.4,0.1
		c2.4-0.2,4.5-0.7,6-1.1c1.5-0.4,2.5-0.7,2.5-0.7s-1-0.1-2.5-0.3c-1.5-0.2-3.6-0.5-5.8-1.1c-2.2-0.5-4.5-1.3-6.6-2.1
		C49.1,54.8,47.3,53.9,46.1,53.2z"/>
		<path d="M42.1,40.7c-1.5-0.3-2.9-0.9-4.3-1.3c-0.3-0.1-0.7-0.2-1-0.3c-0.3-0.1-0.7-0.3-1-0.4
		c-0.7-0.3-1.3-0.5-1.9-0.7c-0.6-0.2-1.2-0.4-1.7-0.6c-0.5-0.2-1-0.5-1.4-0.6c-0.9-0.4-1.7-0.7-2.6-0.9c-0.8-0.3-1.6-0.6-2.3-0.9
		c-0.7-0.2-1.4-0.4-2.1-0.6c-0.6-0.2-1.2-0.4-1.7-0.5c-2.1-0.6-3.5-0.6-3.5-0.6s0.7,1.3,2.3,3.3c0.4,0.5,0.9,1,1.4,1.6
		c0.6,0.5,1.2,1,1.9,1.6s1.4,1.1,2.3,1.6c0.8,0.5,1.8,0.9,2.7,1.3c0.5,0.2,1,0.4,1.6,0.6c0.6,0.2,1.2,0.3,1.9,0.5
		c0.6,0.1,1.3,0.3,2.1,0.5c0.4,0.1,0.7,0.2,1.1,0.2c0.4,0.1,0.8,0.1,1.1,0.1c1.5,0.1,3.1,0.4,4.7,0.3c1.6,0,3.2,0,4.7-0.1
		c3-0.3,5.8-0.6,7.8-1.1c1.9-0.4,3.2-0.6,3.2-0.6s-1.3-0.1-3.2-0.3c-2-0.1-4.7-0.6-7.6-1C45.1,41.4,43.6,41.1,42.1,40.7z"/>
		<path d="M2.5,4.9c1.9,3,5.2,7,10.3,10c2.5,1.6,6.1,3.2,10.2,4.6c4,1.4,8.4,2.5,12.4,3.4
		c4,0.9,7.8,1.6,10.5,2.1c2.7,0.5,4.4,0.8,4.4,0.8s-1.6-0.7-4.2-1.8c-2.6-1.1-6.2-2.6-10-4.1c-3.9-1.6-8-3.4-11.7-5.3
		c-3.7-1.9-7-3.8-9.3-5.2C10.4,6.6,6.7,4.3,4.2,2.5C2.8,1.8,1.8,1,1.1,0.6C0.4,0.2,0,0,0,0s0.2,0.5,0.6,1.3C1,2.2,1.5,3.5,2.5,4.9z"
		/>
		<path d="M135.4,81.5c0.8-0.8,1.8-1.5,2.9-2.4c2.3-1.7,5.1-3.6,8.6-5.6c3.4-2.1,7.5-4.3,11.9-7.2
		c1.1-0.7,2.3-1.6,3.6-2.5c1.3-1,2.7-2,4.1-3.2c2.8-2.4,5.8-5.2,8.4-9.2c2.6-3.9,4.5-8.8,5.1-14c0.6-5.1-0.1-10.7-2.4-15
		c-1.1-2.1-2.7-3.8-4.3-5.1c-1.6-1.2-3.4-2-5.1-2.4c-3.4-0.9-6.5-0.5-8.9,0c-0.6,0.1-1.2,0.2-1.8,0.4c-0.6,0.2-1.1,0.3-1.6,0.5
		c-1,0.4-1.8,0.6-2.5,0.9c-1.3,0.6-2.1,0.9-2.1,0.9s0.8-0.2,2.1-0.6c0.7-0.2,1.5-0.4,2.5-0.6c0.5-0.1,1-0.2,1.6-0.3
		c0.6-0.1,1.1-0.2,1.8-0.2c2.5-0.2,5.4-0.2,8.5,1c3,1.1,6,3.5,7.6,7.2c1.7,3.7,1.9,8.3,1.1,12.6c-0.8,4.3-2.6,8.3-4.9,11.3
		c-2.3,3.1-5.2,5.6-7.8,7.6c-1.3,1.1-2.7,1.9-3.9,2.8c-1.3,0.8-2.4,1.6-3.5,2.3c-4.3,2.9-8.3,5.5-11.6,8.2c-3.4,2.6-6,5.3-8,7.7
		c-1,1.3-1.8,2.3-2.5,3.4c-0.6,1.1-1.2,1.9-1.5,2.7c-0.7,1.6-1,2.4-1,2.4s0.6-0.6,1.6-1.7C133.8,82.8,134.6,82.2,135.4,81.5z"/>
		<path d="M199.5,60.8c2.4,0.2,4.9,0.2,7.4-0.1c2.4-0.3,4.6-1,6.2-1.8c3.1-1.6,5-4.3,5.9-6.3
		c0.5-1,0.7-1.9,0.8-2.5c0.1-0.6,0.1-0.9,0.1-0.9s-0.3,0.1-0.7,0.3c-0.5,0.2-1.1,0.5-1.9,0.8c-1.6,0.7-3.6,1.6-6.1,2.9
		c-1.3,0.7-3,1.6-5.1,2.4c-2.1,0.8-4.4,1.6-6.6,2.1c-2.2,0.5-4.3,0.9-5.8,1.1c-1.5,0.2-2.5,0.3-2.5,0.3s0.9,0.3,2.5,0.7
		C195,60.2,197.1,60.6,199.5,60.8z"/>
		<path d="M210.6,44.8c1.5,0.1,3.1,0.1,4.7,0.1c1.6,0,3.2-0.2,4.7-0.3c0.4,0,0.8-0.1,1.1-0.1
		c0.4-0.1,0.7-0.2,1.1-0.2c0.7-0.2,1.4-0.3,2.1-0.5c0.7-0.2,1.3-0.3,1.9-0.5c0.6-0.2,1.1-0.4,1.6-0.6c1-0.4,1.9-0.8,2.7-1.3
		c0.8-0.5,1.6-1.1,2.3-1.6s1.3-1.1,1.9-1.6c0.5-0.5,1-1.1,1.4-1.6c1.6-2,2.3-3.3,2.3-3.3s-1.3,0-3.5,0.6c-0.5,0.1-1.1,0.3-1.7,0.5
		c-0.6,0.2-1.3,0.3-2.1,0.6c-0.7,0.2-1.5,0.5-2.3,0.9c-0.8,0.3-1.7,0.6-2.6,0.9c-0.4,0.2-0.9,0.4-1.4,0.6c-0.5,0.2-1.1,0.4-1.7,0.6
		c-0.6,0.2-1.2,0.5-1.9,0.7c-0.3,0.1-0.6,0.3-1,0.4c-0.3,0.1-0.7,0.2-1,0.3c-1.4,0.4-2.8,0.9-4.3,1.3c-1.5,0.3-3,0.7-4.4,1
		c-2.9,0.4-5.6,0.9-7.6,1c-2,0.2-3.2,0.3-3.2,0.3s1.3,0.3,3.2,0.6C204.8,44.2,207.6,44.5,210.6,44.8z"/>
		<path d="M221.7,23c4-0.9,8.4-2,12.4-3.4c4-1.4,7.6-3.1,10.2-4.6c5.1-3.1,8.4-7.1,10.3-10
		c1-1.4,1.5-2.8,2-3.6c0.4-0.9,0.6-1.3,0.6-1.3s-0.4,0.2-1.1,0.6c-0.7,0.4-1.7,1.1-3,1.9c-2.6,1.7-6.2,4-10.9,6.9
		c-2.3,1.5-5.6,3.4-9.3,5.2c-3.7,1.9-7.8,3.7-11.7,5.3c-3.8,1.6-7.4,3-10,4.1c-2.6,1.1-4.2,1.8-4.2,1.8s1.7-0.3,4.4-0.8
		C213.9,24.5,217.6,23.8,221.7,23z"/>
	</g>
	<defs>  
		<linearGradient id="gradient" x1="0%" y1="100%" x2="0%" y2="0">
			<stop offset="0" style="stop-color:#fff;"></stop>
			<stop offset="50%" style="stop-color:#de037f;"></stop>
			<stop offset="150%" style="stop-color:#fff;"></stop>
			
			<stop offset="0" style="stop-color:#de037f;"></stop>
		</linearGradient>
		<pattern id="pattern" x="0" y="0" width="200%" height="233%" patternUnits="userSpaceOnUse">
			<rect x="0" y="-73.2897%" width="100%" height="100%" fill="url(#gradient)">
				<animate attributeType="XML" attributeName="y" from="0" to="-100%" dur="1200ms" repeatCount="indefinite"></animate>
			</rect>
			<rect x="0" y="23.0777" width="100%" height="100%" fill="url(#gradient)">
				<animate attributeType="XML" attributeName="y" from="100%" to="0" dur="1200ms" repeatCount="indefinite"></animate>
			</rect>
		</pattern>
	</defs>
</svg>